<svg width="87" height="42" viewBox="0 0 87 42" fill="none" xmlns="http://www.w3.org/2000/svg">
<path d="M1.9007 8.4126V18.2227L1.96201 18.2533C2.75908 17.1804 3.77075 16.5672 5.18094 16.5672C8.27725 16.5672 9.013 18.8051 9.013 21.4416V28.1247H7.1123V21.8095C7.1123 20.0007 6.95902 18.376 4.75175 18.376C2.1153 18.376 1.96201 20.8285 1.96201 22.8211V28.1554H0V8.4126H1.9007Z" fill="#005B66"/>
<path d="M10.7605 16.9045H12.9984L16.9531 24.9672L20.6012 16.9045H22.7778L14.4699 34.4707H12.2933L15.9414 27.1131L10.7605 16.9045Z" fill="#005B66"/>
<path d="M29.185 18.3453C31.5455 18.3453 32.9557 20.154 32.9557 22.4226C32.9557 24.6912 31.6682 26.6839 29.2156 26.6839C26.8244 26.6839 25.5369 24.5992 25.5369 22.392C25.5369 20.3073 26.9777 18.3453 29.185 18.3453ZM32.8638 28.1247H34.7645V8.4126H32.8638V18.4986H32.8024C31.8828 17.303 30.4726 16.5979 28.9397 16.5979C25.5675 16.5979 23.5442 19.357 23.5442 22.5452C23.5442 25.6415 25.6288 28.4619 28.9091 28.4619C30.4419 28.4619 31.8521 27.8181 32.7718 26.5919H32.8331V28.1247H32.8638Z" fill="#005B66"/>
<path d="M40.16 18.1307H40.2213C40.8957 17.2417 41.4782 16.5979 42.7045 16.5979C43.3483 16.5979 43.8694 16.8125 44.4212 17.1191L43.5015 18.8665C43.1337 18.5906 42.8577 18.376 42.3672 18.376C40.2519 18.376 40.16 21.0737 40.16 22.5453V28.1554H38.2593V16.9045H40.16V18.1307Z" fill="#005B66"/>
<path d="M51.227 18.3453C53.5876 18.3453 55.2123 20.246 55.2123 22.5146C55.2123 24.8138 53.5876 26.6839 51.227 26.6839C48.8665 26.6839 47.2417 24.8138 47.2417 22.5146C47.2417 20.246 48.8665 18.3453 51.227 18.3453ZM51.227 28.462C54.5072 28.462 57.1437 25.8562 57.1437 22.5453C57.1437 19.2344 54.5379 16.5979 51.227 16.5979C47.9161 16.5979 45.3103 19.265 45.3103 22.5453C45.341 25.8562 47.9774 28.462 51.227 28.462Z" fill="#005B66"/>
<path d="M78.7257 2.71069C79.1549 2.43478 79.8294 2.18953 80.2585 2.31216C78.8177 0.932615 76.8863 -0.232331 74.9856 0.932615L66.2179 6.84932C65.7887 7.12522 65.1142 7.37048 64.6851 7.24785C66.1259 8.62739 68.0573 9.79234 69.958 8.62739L78.7257 2.71069Z" fill="#005B66"/>
<path d="M84.6424 8.56616C85.0716 8.29025 85.746 8.045 86.1752 8.16763C84.7343 6.78808 82.803 5.62314 80.9023 6.78808L72.1039 12.7048C71.6747 12.9807 71.0002 13.2259 70.571 13.1033C72.0119 14.4829 73.9433 15.6478 75.844 14.4829L84.6424 8.56616Z" fill="#005B66"/>
<path d="M81.6383 11.1718C81.9449 13.9615 81.1478 16.7512 79.1551 18.7439C75.3844 22.5147 68.8852 22.0855 64.5933 17.7936C60.3014 13.5017 59.8722 7.00249 63.6429 3.23174C65.6356 1.23907 68.3947 0.411345 71.2151 0.748566C67.2604 -0.447037 63.1831 0.19675 60.516 2.86386C56.2854 7.09446 57.0824 14.7892 62.3554 20.0621C67.5976 25.3044 75.2924 26.1321 79.5536 21.9015C82.2208 19.2038 82.8645 15.1265 81.6383 11.1718Z" fill="#005B66"/>
<path d="M51.2577 32.294C52.9744 32.294 54.0167 33.9801 54.0167 35.6049C54.0167 37.1684 52.9744 38.8851 51.2577 38.8851C49.5409 38.8851 48.4986 37.199 48.4986 35.6049C48.4679 33.9494 49.5409 32.294 51.2577 32.294ZM51.2577 29.3203C47.6095 29.3203 45.0957 31.9261 45.0957 35.5742C45.0957 39.2224 47.5789 41.8282 51.2577 41.8282C54.9364 41.8282 57.4196 39.2224 57.4196 35.5742C57.4196 31.9261 54.9058 29.3203 51.2577 29.3203Z" fill="#005B66"/>
<path d="M62.3553 30.7918H62.4166C63.1217 29.7495 64.2867 29.3203 65.4823 29.3203C68.6399 29.3203 69.5596 31.5582 69.5596 34.256V41.4296H66.218V35.2064C66.218 33.7962 66.2794 31.9874 64.4093 31.9874C62.4166 31.9874 62.386 34.2253 62.386 35.6355V41.4603H59.0444V29.6882H62.386V30.7918H62.3553Z" fill="#005B66"/>
<path d="M74.7099 34.0415C74.8632 32.8153 75.6296 31.681 76.9478 31.681C78.2354 31.681 79.0018 32.8459 79.1857 34.0415H74.7099ZM82.3434 36.1262V35.7276C82.3434 32.2021 80.6266 29.3511 76.7639 29.3511C72.9625 29.3511 71.0618 32.1408 71.0618 35.697C71.0618 39.2531 73.2997 41.8283 76.9172 41.8283C79.3697 41.8283 81.4237 40.51 82.2514 38.1801L79.1551 37.6896C78.6952 38.6093 78.0208 39.2838 76.9172 39.2838C75.1697 39.2838 74.5873 37.5977 74.5873 36.1262H82.3434Z" fill="#005B66"/>
</svg>
